<svg id="Layer_1" data-name="Layer 1" xmlns="http://www.w3.org/2000/svg" viewBox="0 0 197.64732 294.61915"><defs><style>.cls-1,.cls-15,.cls-16,.cls-17,.cls-18,.cls-21,.cls-31,.cls-6{fill:#36171b;}.cls-1,.cls-15,.cls-16,.cls-17,.cls-31,.cls-6{stroke:#36171b;}.cls-1,.cls-10,.cls-12,.cls-16,.cls-17,.cls-18,.cls-21,.cls-27,.cls-3,.cls-31,.cls-4,.cls-6,.cls-9{stroke-linecap:round;}.cls-1,.cls-16,.cls-17,.cls-18,.cls-21,.cls-27,.cls-3,.cls-31,.cls-4,.cls-6,.cls-9{stroke-linejoin:round;}.cls-1{stroke-width:2.41px;}.cls-2{fill:#ed343a;stroke:#ed343a;stroke-width:6.7px;}.cls-11,.cls-14,.cls-15,.cls-2,.cls-20,.cls-24,.cls-25,.cls-26,.cls-28,.cls-29,.cls-30,.cls-5,.cls-7,.cls-8{stroke-miterlimit:10;}.cls-10,.cls-12,.cls-14,.cls-19,.cls-3,.cls-4{fill:#fff;}.cls-10,.cls-12,.cls-14,.cls-20,.cls-3,.cls-4,.cls-5{stroke:#fff;}.cls-3,.cls-8,.cls-9{stroke-width:7.47px;}.cls-4{stroke-width:0.71px;}.cls-13,.cls-20,.cls-23,.cls-5{fill:none;}.cls-5{stroke-linecap:square;stroke-width:1.18px;}.cls-6{stroke-width:1.89px;}.cls-28,.cls-29,.cls-30,.cls-7,.cls-8,.cls-9{fill:#124e4f;stroke:#124e4f;}.cls-7{stroke-width:7.53px;}.cls-10,.cls-12{stroke-linejoin:bevel;}.cls-10{stroke-width:0.05px;}.cls-11{fill:#f9f9fa;stroke:#f9f9fa;}.cls-11,.cls-12{stroke-width:0.12px;}.cls-14{stroke-width:1.62px;}.cls-15{stroke-width:0.08px;}.cls-16{stroke-width:1.17px;}.cls-17{stroke-width:1.45px;}.cls-18,.cls-21{stroke:#fbfafc;}.cls-18{stroke-width:1.43px;}.cls-20{stroke-width:2.76px;}.cls-21{stroke-width:1.49px;}.cls-22{fill:#d6d5d5;}.cls-23{stroke:#d6d5d5;}.cls-24,.cls-25,.cls-26{fill:#e32330;stroke:#e32330;}.cls-24,.cls-28{stroke-width:8.47px;}.cls-25,.cls-29{stroke-width:8.485px;}.cls-26,.cls-30{stroke-width:8.88px;}.cls-27{fill:#461619;stroke:#461619;}.cls-27,.cls-31{stroke-width:2.79px;}</style></defs><title>Artboard 1</title><g id="news_letter_girl" data-name="news letter girl"><rect id="Rectangle_234" data-name="Rectangle 234" class="cls-1" x="85.44962" y="104.26717" width="5.893" height="16.98"/><rect id="Rectangle_235" data-name="Rectangle 235" class="cls-2" x="27.55765" y="151.54915" width="68.258" height="139.187"/><rect id="Rectangle_236" data-name="Rectangle 236" class="cls-3" x="32.36966" y="149.77913" width="16.026" height="20.88"/><path id="Path_425" data-name="Path 425" class="cls-4" d="M37.59464,177.28414l-2.894-1.325-2.734,1.643.36-3.169-2.4-2.088,3.116-.636,1.251-2.936,1.569,2.777,3.16894.276-2.152,2.353Z"/><path id="Path_426" data-name="Path 426" class="cls-4" d="M45.49166,168.86812l1.41,2.851,3.14795.456-2.279,2.226.541,3.137-2.819-1.484-2.819,1.484.54-3.137-2.27906-2.226,3.148-.456Z"/><rect id="Rectangle_237" data-name="Rectangle 237" class="cls-3" x="74.21464" y="150.65913" width="16.026" height="20.88"/><path id="Path_427" data-name="Path 427" class="cls-4" d="M79.93366,178.41814l-2.9-1.325-2.724,1.632.36-3.158-2.406-2.088,3.127-.636,1.251-2.936,1.558,2.777,3.18005.276-2.162,2.353Z"/><path id="Path_428" data-name="Path 428" class="cls-4" d="M88.58657,169.74813l1.41,2.851,3.14795.456-2.27906,2.226.541,3.137-2.819-1.473-2.819,1.473.541-3.137-2.29-2.226,3.15795-.456Z"/><line id="Line_65" data-name="Line 65" class="cls-5" x1="40.63663" y1="174.05217" x2="40.94363" y2="150.40517"/><line id="Line_66" data-name="Line 66" class="cls-5" x1="29.03055" y1="162.30714" x2="51.74455" y2="162.30714"/><rect id="Rectangle_238" data-name="Rectangle 238" class="cls-4" x="31.24564" y="163.80214" width="7.144" height="9.391"/><rect id="Rectangle_239" data-name="Rectangle 239" class="cls-6" x="42.51261" y="163.30415" width="7.038" height="8.712"/><rect id="Rectangle_240" data-name="Rectangle 240" class="cls-6" x="31.57462" y="163.28316" width="7.038" height="8.712"/><rect id="Rectangle_241" data-name="Rectangle 241" class="cls-6" x="42.51261" y="151.61317" width="7.038" height="8.712"/><rect id="Rectangle_242" data-name="Rectangle 242" class="cls-6" x="31.69059" y="151.46516" width="7.038" height="8.712"/><path id="Path_429" data-name="Path 429" class="cls-7" d="M71.09855,146.54613c.223,1.2-.339,5.66-3.529,6.264a5.045,5.045,0,0,1-5.60266-4.41749q-.01666-.1409-.02539-.28253a32.29415,32.29415,0,0,0-5.18384-14.55792"/><path id="Path_430" data-name="Path 430" class="cls-7" d="M56.12261,133.49912c-5.575,3.18-11.828,6.359-17.4,9.539a8.11761,8.11761,0,0,0-2.58606,3.18c-.456,1.134-.78406,5.618,2.226,6.836a5.05606,5.05606,0,0,0,6.37183-3.2445q.039-.1203.07214-.24249a32.3372,32.3372,0,0,1,7.939-13.27"/><path id="Path_431" data-name="Path 431" class="cls-7" d="M39.79958,133.12815c-5.575,3.243-11.839,6.359-17.4,9.539a8.042,8.042,0,0,0-2.58606,3.18c-.45606,1.124-.78406,5.618,2.22595,6.836a5.056,5.056,0,0,0,6.36963-3.24878q.04047-.12461.07434-.25122a32.30518,32.30518,0,0,1,7.939-13.259"/><path id="Path_432" data-name="Path 432" class="cls-7" d="M24.03861,134.18815c-5.564,3.233-11.829,6.359-17.39294,9.539a8.11894,8.11894,0,0,0-2.58606,3.18c-.45606,1.124-.78406,5.618,2.226,6.826a5.03513,5.03513,0,0,0,6.3595-3.20313q.04632-.14062.08447-.28387a32.24391,32.24391,0,0,1,7.938-13.259"/><path id="Path_433" data-name="Path 433" class="cls-7" d="M39.55566,137.17715l-1.08105,5.618,7.483,1.441"/><rect id="Rectangle_243" data-name="Rectangle 243" class="cls-6" x="73.4086" y="163.71712" width="7.038" height="8.712"/><rect id="Rectangle_244" data-name="Rectangle 244" class="cls-6" x="84.21964" y="163.79115" width="7.038" height="8.712"/><rect id="Rectangle_245" data-name="Rectangle 245" class="cls-6" x="84.34659" y="152.11116" width="7.038" height="8.712"/><rect id="Rectangle_246" data-name="Rectangle 246" class="cls-6" x="73.18656" y="152.00514" width="7.038" height="8.712"/><path id="Path_434" data-name="Path 434" class="cls-7" d="M80.12866,130.76517c5.575,3.233,11.839,6.359,17.4,9.539a8.119,8.119,0,0,1,2.58606,3.18c.45606,1.124.78406,5.618-2.22595,6.836a5.05606,5.05606,0,0,1-6.37183-3.24451q-.039-.1203-.07214-.24249a32.27272,32.27272,0,0,0-7.939-13.27"/><path id="Path_435" data-name="Path 435" class="cls-7" d="M95.8366,131.81416c5.564,3.243,11.828,6.359,17.393,9.539a8.04731,8.04731,0,0,1,2.58606,3.18c.456,1.123.78406,5.617-2.225,6.836a5.056,5.056,0,0,1-6.36963-3.24878q-.04046-.12461-.07434-.25122a32.30556,32.30556,0,0,0-7.939-13.259"/><path id="Path_436" data-name="Path 436" class="cls-7" d="M80.31965,134.76012l1.08105,5.618-7.483,1.442"/><rect id="Rectangle_247" data-name="Rectangle 247" class="cls-8" x="42.30057" y="139.38216" width="37.107" height="4.854"/><path id="Path_437" data-name="Path 437" class="cls-7" d="M63.75258,131.08315c5.575,3.18,11.829,6.359,17.4,9.539a8.12058,8.12058,0,0,1,2.58606,3.18c.45605,1.134.78406,5.617-2.22595,6.836a5.055,5.055,0,0,1-6.37122-3.24256q-.03936-.12131-.07275-.24444a32.33681,32.33681,0,0,0-7.939-13.27"/><path id="Path_438" data-name="Path 438" class="cls-9" d="M103.28759,141.39514l-84.082-1.3,12.125-13.98,62.18505-.519Z"/><path id="Path_439" data-name="Path 439" class="cls-10" d="M32.88859,138.72512l.1-7.419a2.84978,2.84978,0,0,1,.71-1.844,2.893,2.893,0,1,1,4.442,3.70758q-.03662.044-.07507.08643h0l-.106.106h0Z"/><path id="Path_440" data-name="Path 440" class="cls-10" d="M32.91061,138.70416v-7.419a2.968,2.968,0,0,0-.689-1.865,2.9,2.9,0,0,0-4.42,3.741h0l.106.117h0Z"/><path id="Path_441" data-name="Path 441" class="cls-10" d="M47.12364,138.69313l.1-7.419a2.86129,2.86129,0,0,1,.71-1.855,2.893,2.893,0,0,1,4.4165,3.738c-.01623.01923-.03283.03821-.04956.057h0l-.10595.106h0Z"/><path id="Path_442" data-name="Path 442" class="cls-10" d="M47.21864,138.72412v-7.419a2.9,2.9,0,1,0-5.119,1.844h0l.106.106h0Z"/><path id="Path_443" data-name="Path 443" class="cls-11" d="M75.22165,138.72412l.1-7.419a2.85134,2.85134,0,0,1,.71-1.844,2.894,2.894,0,0,1,4.49182,3.65027q-.06006.07389-.12488.14374h0l-.10595.106h0Z"/><path id="Path_444" data-name="Path 444" class="cls-10" d="M75.16856,138.75615l.053-7.419a2.9,2.9,0,1,0-5.12,1.844h0l.106.106h0Z"/><path id="Path_445" data-name="Path 445" class="cls-12" d="M91.24765,138.72512l.1-7.419a2.84982,2.84982,0,0,1,.71-1.844,2.893,2.893,0,1,1,4.442,3.70758q-.03661.044-.07507.08643h0l-.106.106h0Z"/><path id="Path_446" data-name="Path 446" class="cls-12" d="M91.32157,138.72412l.053-7.419a2.894,2.894,0,1,0-5.119,1.844h0l.106.106h0Z"/><line id="Line_67" data-name="Line 67" class="cls-13" x1="61.13566" y1="182.60512" x2="61.19966" y2="182.64712"/><rect id="Rectangle_248" data-name="Rectangle 248" class="cls-14" x="55.34867" y="256.55415" width="16.958" height="37.15"/><path id="Path_447" data-name="Path 447" class="cls-15" d="M63.86957,283.11514v-3.18a1.292,1.292,0,0,1,.307-.795,1.251,1.251,0,0,1,1.749-.117,1.229,1.229,0,0,1,.12976,1.73322l-.01379.01581h0Z"/><path id="Path_448" data-name="Path 448" class="cls-15" d="M64.17755,283.11515v-3.18a1.25907,1.25907,0,0,0-.286-.795,1.24,1.24,0,1,0-1.9707,1.50562q.03351.04376.07068.08441h0v.053h0Z"/><rect id="Rectangle_249" data-name="Rectangle 249" class="cls-16" x="65.07755" y="259.19313" width="5.416" height="6.826"/><rect id="Rectangle_250" data-name="Rectangle 250" class="cls-17" x="65.07755" y="268.97615" width="5.416" height="6.699"/><rect id="Rectangle_251" data-name="Rectangle 251" class="cls-17" x="56.98063" y="269.00813" width="5.416" height="6.699"/><rect id="Rectangle_252" data-name="Rectangle 252" class="cls-18" x="82.73661" y="256.70314" width="11.977" height="11.977" rx="4.38"/><path id="Path_449" data-name="Path 449" class="cls-7" d="M48.52166,148.96313c-.222,1.187.339,5.66,3.52906,6.254a5.04488,5.04488,0,0,0,5.613-4.40423q.017-.14.026-.28077a32.33492,32.33492,0,0,1,5.162-14.574"/><path id="Path_450" data-name="Path 450" class="cls-19" d="M56.61967,133.20317a2.828,2.828,0,1,1,4.96-1.844v7.229Z"/><path id="Path_451" data-name="Path 451" class="cls-19" d="M58.76063,128.58217a2.755,2.755,0,0,1,2.12,1,2.80979,2.80979,0,0,1,.646,1.781v7.07l-4.71595-5.162-.1-.106-.1.085.063-.117a2.777,2.777,0,0,1,2.12-4.547m0-.127a2.893,2.893,0,0,0-2.215,4.748h0l.1.106h0l4.918,5.395v-7.419a2.83962,2.83962,0,0,0-.668-1.865,2.88306,2.88306,0,0,0-2.21912-1.06506Z"/><path id="Path_452" data-name="Path 452" class="cls-10" d="M61.6546,138.72415l.106-7.419a2.85285,2.85285,0,0,1,.71-1.844,2.894,2.894,0,1,1,4.356,3.794h0l-.1.106h0Z"/><rect id="Rectangle_253" data-name="Rectangle 253" class="cls-3" x="32.08365" y="199.46815" width="16.026" height="20.88"/><path id="Path_453" data-name="Path 453" class="cls-4" d="M37.29761,226.96116l-2.89295-1.314-2.724,1.632.36-3.159-2.406-2.1,3.127-.636,1.24-2.925,1.569,2.777,3.16894.276-2.151,2.353Z"/><path id="Path_454" data-name="Path 454" class="cls-4" d="M45.20464,218.54617l1.4,2.862,3.15795.456-2.279,2.226.53,3.137-2.809-1.484-2.819,1.484.53-3.137-2.279-2.226,3.15906-.456Z"/><line id="Line_68" data-name="Line 68" class="cls-5" x1="40.33964" y1="223.73917" x2="40.65764" y2="200.08217"/><line id="Line_69" data-name="Line 69" class="cls-5" x1="28.74466" y1="211.99617" x2="51.44766" y2="211.99617"/><rect id="Rectangle_254" data-name="Rectangle 254" class="cls-4" x="30.94962" y="213.48012" width="7.144" height="9.391"/><rect id="Rectangle_255" data-name="Rectangle 255" class="cls-6" x="42.21561" y="212.98213" width="7.038" height="8.712"/><rect id="Rectangle_256" data-name="Rectangle 256" class="cls-6" x="31.27762" y="212.97115" width="7.038" height="8.712"/><rect id="Rectangle_257" data-name="Rectangle 257" class="cls-6" x="42.21561" y="199.83913" width="7.038" height="8.712"/><rect id="Rectangle_258" data-name="Rectangle 258" class="cls-6" x="31.39457" y="199.97615" width="7.038" height="8.712"/><rect id="Rectangle_259" data-name="Rectangle 259" class="cls-3" x="74.83964" y="199.75417" width="16.026" height="20.88"/><path id="Path_455" data-name="Path 455" class="cls-4" d="M80.05457,227.25916l-2.894-1.325-2.734,1.643.36-3.169-2.4-2.088,3.116-.636,1.251-2.925,1.569,2.766,3.16895.286-2.151,2.342Z"/><path id="Path_456" data-name="Path 456" class="cls-4" d="M87.9506,218.84314l1.40905,2.851,3.14795.466-2.279,2.215.541,3.137-2.819-1.484-2.819,1.484.541-3.137-2.279-2.215,3.14795-.466Z"/><line id="Line_70" data-name="Line 70" class="cls-5" x1="83.09659" y1="224.03617" x2="83.40359" y2="200.37917"/><line id="Line_71" data-name="Line 71" class="cls-5" x1="71.49064" y1="212.29317" x2="94.20464" y2="212.29317"/><rect id="Rectangle_260" data-name="Rectangle 260" class="cls-4" x="73.7056" y="213.77614" width="7.144" height="9.391"/><rect id="Rectangle_261" data-name="Rectangle 261" class="cls-6" x="84.97257" y="213.27815" width="7.038" height="8.712"/><rect id="Rectangle_262" data-name="Rectangle 262" class="cls-6" x="74.03458" y="213.25716" width="7.038" height="8.712"/><rect id="Rectangle_263" data-name="Rectangle 263" class="cls-6" x="84.97257" y="200.12514" width="7.038" height="8.712"/><rect id="Rectangle_264" data-name="Rectangle 264" class="cls-6" x="74.15055" y="200.27315" width="7.038" height="8.712"/><path id="Path_457" data-name="Path 457" class="cls-20" d="M23.99557,241.64115c2.671,0,2.671,5.851,5.353,5.851s2.671-5.851,5.30005-5.851,2.671,5.851,5.3,5.851,2.682-5.851,5.3-5.851,2.671,5.851,5.3,5.851,2.671-5.851,5.353-5.851,2.671,5.851,5.3,5.851,2.671-5.851,5.3-5.851,2.671,5.851,5.3,5.851,2.671-5.851,5.3-5.851,2.671,5.851,5.353,5.851,2.671-5.851,5.3-5.851,2.682,5.851,5.363,5.851,2.682-5.851,5.363-5.851"/><rect id="Rectangle_265" data-name="Rectangle 265" class="cls-16" x="56.98063" y="259.19313" width="5.416" height="6.826"/><path id="Path_458" data-name="Path 458" class="cls-20" d="M28.97765,193.28916c1.36694,0,1.36694,2.925,2.735,2.925s1.35706-2.925,2.724-2.925,1.36695,2.925,2.734,2.925,1.36694-2.925,2.734-2.925,1.36694,2.925,2.734,2.925,1.37805-2.925,2.745-2.925,1.36695,2.925,2.734,2.925,1.37805-2.925,2.745-2.925"/><path id="Path_459" data-name="Path 459" class="cls-20" d="M72.15864,194.05213c1.36694,0,1.36694,2.915,2.734,2.915s1.36694-2.915,2.735-2.915,1.367,2.915,2.734,2.915,1.36694-2.915,2.735-2.915,1.36694,2.915,2.734,2.915,1.36694-2.915,2.734-2.915,1.37806,2.915,2.745,2.915,1.36694-2.915,2.745-2.915"/><path id="Path_460" data-name="Path 460" class="cls-20" d="M54.18156,253.48113c1.177,0,1.177,2.925,2.353,2.925s1.177-2.925,2.353-2.925,1.177,2.925,2.353,2.925,1.176-2.925,2.363-2.925,1.177,2.925,2.353,2.925,1.177-2.925,2.364-2.925,1.177,2.925,2.364,2.925,1.177-2.925,2.353-2.925"/><rect id="Rectangle_266" data-name="Rectangle 266" class="cls-21" x="31.39457" y="255.83412" width="12.475" height="12.475" rx="4.38"/></g><g id="news_letter_girl-2" data-name="news letter girl"><path id="Path_461" data-name="Path 461" class="cls-22" d="M82.16568,52.36411c-1-4.43-1.91-9.38-3-13.81a4.57192,4.57192,0,0,0-1.32995-2.14,2.69006,2.69006,0,0,0-3.81995,1.37c-.78,1.77-.4,4.28,1.06006,5.11a15.77868,15.77868,0,0,1,6,6.74C81.39566,50.20414,81.94571,51.79417,82.16568,52.36411Z"/><path id="Path_462" data-name="Path 462" class="cls-22" d="M85.90567,51.33414c-.66-2.88-1.24-5.77-1.82995-8.66-.52-2.54-.79-5.41-2.27-7.6a6.38,6.38,0,0,0-8.76-1.86c-3.58,2.29-4.24,7.85-1.83,11.19,1,1.44,2.68006,2.17,3.93006,3.4a14.55916,14.55916,0,0,1,3.27,5.59c1.72,4.64,9.23,2.64,7.49-2.06-1.47-4-4-9.69-8.29-11.45a14.659,14.659,0,0,1-2.3-.56c-.08.07.84,3.31.91,3.67.74,3.46,1.4,6.94,2.18994,10.4C79.53568,58.26414,87.01566,56.20414,85.90567,51.33414Z"/><path id="Path_463" data-name="Path 463" class="cls-22" d="M84.33573,39.89414c-1-4.43-1.91-9.38-2.93994-13.8a4.59221,4.59221,0,0,0-1.33-2.14,2.69,2.69,0,0,0-3.83,1.36c-.78,1.77-.4,4.28,1.06006,5.11a15.74945,15.74945,0,0,1,6,6.75C83.56571,37.72416,84.11564,39.30411,84.33573,39.89414Z"/><path id="Path_464" data-name="Path 464" class="cls-22" d="M88.07572,38.89414c-.65-2.88-1.23-5.77-1.83-8.66-.52-2.54-.78-5.41-2.27-7.6a6.38,6.38,0,0,0-8.76-1.86c-3.57995,2.3-4.23,7.85-1.82995,11.19,1,1.44,2.68005,2.18,3.93005,3.41a14.46879,14.46879,0,0,1,3.28,5.58c1.72,4.65,9.22,2.64,7.48-2.06-1.46-4-4-9.69-8.29-11.45a13.83687,13.83687,0,0,1-2.3-.56c-.06994.07.84,3.31.92005,3.67.73,3.47,1.4,6.95,2.18994,10.4C81.66568,45.77415,89.19571,43.71415,88.07572,38.89414Z"/><path id="Path_465" data-name="Path 465" class="cls-22" d="M85.23563,27.76414c-1-4.43-1.91-9.38-2.93994-13.81a4.64,4.64,0,0,0-1.34-2.14,2.69,2.69,0,0,0-3.81994,1.37c-.78,1.77-.4,4.28,1.06006,5.11a15.77886,15.77886,0,0,1,6,6.74C84.46573,25.60416,85.01566,27.19413,85.23563,27.76414Z"/><path id="Path_466" data-name="Path 466" class="cls-22" d="M88.97574,26.73417c-.66-2.88-1.23-5.77-1.82995-8.66-.52-2.54-.79-5.41-2.27-7.61a6.39,6.39,0,0,0-8.76-1.85c-3.58,2.29-4.23,7.85-1.83,11.19,1,1.44,2.68005,2.17,3.93005,3.4a14.50946,14.50946,0,0,1,3.28,5.59c1.71,4.64,9.22,2.64,7.48-2.06-1.46-4-4-9.69-8.29-11.46a13.57785,13.57785,0,0,1-2.3-.55c-.08.07.84,3.31.92,3.67.73,3.46,1.4,6.94,2.18994,10.4C82.60563,33.66416,90.08573,31.60416,88.97574,26.73417Z"/><path id="Path_467" data-name="Path 467" class="cls-22" d="M81.52567,25.53416l4.08,1.7-2.88,9.71-4.08-1.7Z"/><path id="Path_468" data-name="Path 468" class="cls-22" d="M80.48563,29.28416l4.09,1.69-2.71-4.77-2.88,9.71,4.77-2.71-4.08-1.7,2.71,4.77,2.88-9.7c1.42-4.8-6.06995-6.85-7.49-2.07l-2.87,9.71c-.66,2.19.8,4,2.71,4.77l4.07995,1.7c2,.82,4.24-.9,4.77-2.71l2.88-9.71c.65-2.19-.8-4-2.71-4.77l-4.07995-1.7c-1.93994-.8-4.27.87-4.78,2.71C77.16568,26.74412,78.54569,28.47416,80.48563,29.28416Z"/><path id="Path_469" data-name="Path 469" class="cls-22" d="M85.54569,28.15415c1.32-4.8,3-9.91,4.30005-14.72a8.64,8.64,0,0,0,.07995-3.1c-.17-.85-1.49-3.41-3.16-2.39-1.31995.81-2.2,3.34-1.61,5.43a32.18089,32.18089,0,0,1,.92005,11.44C86.00565,25.57413,85.66568,27.46415,85.54569,28.15415Z"/><path id="Path_470" data-name="Path 470" class="cls-22" d="M89.28568,29.18412c1.55-5.55,4.73-12,4.62-17.79-.06005-3.33-2.18994-7.16-5.81994-7.5-4.5-.42-7.12,4.46-7,8.4.06994,2.26,1,4.45,1.15,6.71a30.70794,30.70794,0,0,1-.45,8.12c-.82995,4.89,6.65,7,7.49,2.06.88-5.17,1.71-11.8-.39-16.85q.75989-2.57-2.84-1.27,0-1,.09.33c-.5.89-.56995,2.89-.87,3.93-1.14,3.94-2.37,7.85-3.48,11.8C80.45572,31.94413,87.9357,33.99412,89.28568,29.18412Z"/><line id="Line_72" data-name="Line 72" class="cls-13" x1="83.37565" y1="47.42415" x2="96.67565" y2="3.77415"/><path id="Path_471" data-name="Path 471" class="cls-22" d="M87.11564,48.45414l13.3-43.65c1.46-4.79-6-6.84-7.48-2.06l-13.27,43.65c-1.46,4.79,6,6.83,7.48,2.06Z"/><path id="Path_472" data-name="Path 472" class="cls-22" d="M85.09574,20.32413c-1-4.43-1.91-9.38-2.93994-13.8a4.56988,4.56988,0,0,0-1.34-2.14,2.68976,2.68976,0,0,0-3.82,1.36c-.78,1.77-.4,4.28,1.06006,5.11a15.74951,15.74951,0,0,1,6,6.75C84.32572,18.17417,84.87565,19.75413,85.09574,20.32413Z"/><path id="Path_473" data-name="Path 473" class="cls-22" d="M88.83573,19.29417c-.65-2.88-1.23-5.77-1.83-8.66-.52-2.54-.78-5.41-2.27-7.6a6.38,6.38,0,0,0-8.76-1.86c-3.57995,2.29-4.23,7.85-1.82995,11.19,1,1.44,2.68,2.18,3.93,3.41a14.46832,14.46832,0,0,1,3.28,5.58c1.72,4.65,9.22,2.64,7.48-2.06-1.46-4-4-9.69-8.29-11.45a13.83091,13.83091,0,0,1-2.3-.56c-.06994.07.84,3.31.92,3.67.73,3.47,1.4,7,2.18994,10.4C82.46573,26.22416,89.95572,24.16416,88.83573,19.29417Z"/><path id="Path_474" data-name="Path 474" class="cls-22" d="M87.59574,53.76414c2.29-2.6,4.47-5.57,6.76-8.16a4.99992,4.99992,0,0,1,2.21-1c.79-.12,3.93005.16,4.77,1.86.66,1.34-.37,2.86-2.47,3a21.878,21.878,0,0,0-9.31995,2.82C89.0557,52.56412,88.00565,53.45414,87.59574,53.76414Z"/><path id="Path_475" data-name="Path 475" class="cls-22" d="M90.33573,56.50413c1.9-2.19,3.66-4.49,5.52-6.71l1.18994-1.38c.14-.16.84.27-.18,0,1.25.32,1.26.18,1.48-1.33.37-2.46.49-1.24-.65-1.39a9.13818,9.13818,0,0,0-2.26.33,23.16282,23.16282,0,0,0-3.9,1.05,23.89017,23.89017,0,0,0-6.68006,3.93c-1.66,1.31-1.35,4.12,0,5.49,1.6,1.64,3.85,1.29,5.48,0a14.24873,14.24873,0,0,1,5.46-2.62c1.79-.46,3.73-.41,5.47-1a5.91,5.91,0,0,0,2.28-9.83,9.3,9.3,0,0,0-8.9-1.93c-4.28,1.41-7,6.68-9.79,9.93C81.58573,54.77415,87.0557,60.28416,90.33573,56.50413Z"/><path id="Path_476" data-name="Path 476" class="cls-22" d="M83.37565,47.42417c3.49-4.94,7-10.66,10.46-15.6a5.39969,5.39969,0,0,1,2.9-1.81,5.07,5.07,0,0,1,5,4.39c.34,2.79-1.33,5.74-3.83,5.79a19.8699,19.8699,0,0,0-11.74,4.47C85.46573,45.20414,83.94571,46.89414,83.37565,47.42417Z"/><path id="Path_477" data-name="Path 477" class="cls-22" d="M86.72574,49.38413c2.7-3.87,5.23-7.85,7.85-11.77a23.46773,23.46773,0,0,1,1.87-2.76c.5-.57,1.2-1,.86-1-.5,0,.68994.73.55,1.6-.25,1.44-2.47,1.08-3.66,1.3a22.27392,22.27392,0,0,0-4.84,1.51,26.7195,26.7195,0,0,0-8.72,6.42c-3.48,3.59,2,9.09,5.49,5.49a19.13018,19.13018,0,0,1,6.67-5c2.56006-1,5.47-.68,7.92-1.79,5.17005-2.33,6.43006-9.93,2.79-14.1a8.039,8.039,0,0,0-10.57995-1.79c-2.73,1.74-4.43006,5.23-6.17005,7.88-2.23,3.37-4.42,6.77-6.73,10.08C77.15567,49.56412,83.88565,53.45414,86.72574,49.38413Z"/><path id="Path_478" data-name="Path 478" class="cls-22" d="M87.49564,31.33414c3.48-5,7-10.66,10.46-15.6a5.39977,5.39977,0,0,1,2.9-1.81,5.08,5.08,0,0,1,5,4.38c.34,2.8-1.34,5.75-3.84,5.8a19.88983,19.88983,0,0,0-11.74,4.47C89.57572,29.11411,88.06571,30.75413,87.49564,31.33414Z"/><path id="Path_479" data-name="Path 479" class="cls-22" d="M90.84574,33.28416c2.69995-3.86,5.23-7.84,7.84-11.77a24.75715,24.75715,0,0,1,1.87-2.76c.51-.56,1.21-1,.87-1-.51,0,.68995.73.54,1.6-.24,1.43-2.46,1.08-3.66,1.3a22.81364,22.81364,0,0,0-4.84,1.5,26.60922,26.60922,0,0,0-8.72,6.43c-3.48,3.59,2,9.09,5.49,5.49a19.00046,19.00046,0,0,1,6.68006-5c2.55-1,5.46-.68,7.92-1.79,5.16-2.33,6.42-9.93,2.78-14.1a8.028,8.028,0,0,0-10.57-1.8c-2.74,1.75-4.43,5.24-6.18,7.89-2.22,3.37-4.41,6.76-6.73,10.08C81.27567,33.47416,87.99564,37.35416,90.84574,33.28416Z"/><path id="Path_480" data-name="Path 480" class="cls-22" d="M93.89566,31.05411l-6.71-.65-.15,14.38,6.7.66Z"/><path id="Path_481" data-name="Path 481" class="cls-22" d="M93.89566,27.17417l-6.71-.65c-2.1-.21-3.86,1.94-3.88,3.88l-.15,14.38a4,4,0,0,0,3.88,3.89l6.7.65c2.11.21,3.86-1.95,3.88-3.88l.16-14.39c.05-5-7.71-5-7.76,0l-.16,14.39,3.88-3.88-6.7-.66,3.88,3.88.15-14.38-3.88,3.88,6.71.65C98.85563,35.42417,98.82572,27.65415,93.89566,27.17417Z"/><path id="Path_482" data-name="Path 482" class="cls-22" d="M86.86564,31.62412c.23-7.06.09-14.73.31994-21.78a9.99944,9.99944,0,0,1,1.27-4c.63-1,3.68994-3.33,5.67-.86a7,7,0,0,1-.08,8,35.91985,35.91985,0,0,0-6.47,14C87.34574,27.99412,87.01566,30.65415,86.86564,31.62412Z"/><path id="Path_483" data-name="Path 483" class="cls-22" d="M90.74564,31.62412c.15-5.16.14-10.32.2-15.48a69.1,69.1,0,0,1,.43994-7.36c.26-2.3-.36,1.6-.68994,2.26-1.5,3-3.57995,5.49-4.86,8.65a45.71192,45.71192,0,0,0-2.71,10.89c-.7,4.89,6.78,7,7.48,2.07,1-6.83,3.2-11.87,6.79-17.69,2.61-4.22,2.73-11.6-2.37-14.21-4.48-2.3-9.41,1-10.93005,5.32-1.23,3.47-.89,7.35-.92005,11,0,4.86,0,9.71-.18994,14.57S90.60563,36.61411,90.74564,31.62412Z"/><line id="Line_73" data-name="Line 73" class="cls-13" x1="85.55573" y1="57.42417" x2="84.08573" y2="15.42417"/><path id="Path_484" data-name="Path 484" class="cls-22" d="M89.4357,57.42417l-1.47-42c-.18-5-7.93994-5-7.76,0l1.47,42C81.85563,62.42417,89.61564,62.42417,89.4357,57.42417Z"/><path id="Path_485" data-name="Path 485" class="cls-22" d="M91.01566,21.89414c3.49-4.94,7-10.66,10.47-15.6a5.45962,5.45962,0,0,1,2.89-1.81,5.09007,5.09007,0,0,1,5,4.39c.35,2.8-1.33,5.74-3.83,5.8a19.75983,19.75983,0,0,0-11.74,4.47C93.10563,19.70414,91.59574,21.35416,91.01566,21.89414Z"/><path id="Path_486" data-name="Path 486" class="cls-22" d="M94.37565,23.89414c2.7-3.86,5.22-7.85,7.84-11.77a24.75578,24.75578,0,0,1,1.87-2.76c.5-.56,1.21-1,.87-1-.51,0,.68.73.54,1.6-.24,1.43-2.47,1.08-3.66,1.3a22.81328,22.81328,0,0,0-4.84,1.5,26.60939,26.60939,0,0,0-8.72,6.43c-3.48,3.59,2,9.08,5.49,5.49a19.00039,19.00039,0,0,1,6.68005-5c2.55-1,5.46-.69,7.91-1.79,5.17-2.33,6.43-9.93,2.79-14.1a8,8,0,0,0-10.57-1.8c-2.74,1.75-4.43994,5.24-6.18,7.89-2.23,3.37-4.41,6.76-6.73,10.07C84.8057,24.07413,91.52567,27.95414,94.37565,23.89414Z"/><path id="Path_487" data-name="Path 487" class="cls-22" d="M89.34574,69.77415c5,0,5-7.76,0-7.76S84.34574,69.77415,89.34574,69.77415Z"/></g><g id="Ellipse_4" data-name="Ellipse 4"><circle class="cls-22" cx="84.74027" cy="77.02794" r="3.5007"/><circle class="cls-23" cx="84.74027" cy="77.02794" r="3.0006"/></g><g id="Ellipse_5" data-name="Ellipse 5"><circle class="cls-22" cx="88.24063" cy="86.47488" r="2.0004"/><circle class="cls-23" cx="88.24063" cy="86.47488" r="1.5003"/></g><g id="Ellipse_6" data-name="Ellipse 6"><ellipse class="cls-22" cx="89.24063" cy="94.85033" rx="1.0002" ry="1.5003" transform="translate(-39.48305 75.08445) rotate(-38.01566)"/><ellipse class="cls-23" cx="89.24063" cy="94.85033" rx="0.5001" ry="1.0002" transform="translate(-39.48305 75.08445) rotate(-38.01566)"/></g><g id="news_letter_girl-3" data-name="news letter girl"><path id="Path_416" data-name="Path 416" class="cls-24" d="M163.21124,196.51732c-4.8,4.86-9.63,10.47-14.43994,15.33a8.53141,8.53141,0,0,1-3.91,1.82c-1.28.17-6-.69-6.43006-4.11a5.36,5.36,0,0,1,5.01954-5.68005q.14007-.00861.28051-.01a34.15845,34.15845,0,0,0,15.74-4.62C160.37128,198.71727,162.43121,197.08726,163.21124,196.51732Z"/><path id="Path_417" data-name="Path 417" class="cls-24" d="M159.18121,213.42729c-4.8,4.86-9.63,10.47-14.43994,15.33a8.63892,8.63892,0,0,1-3.91,1.82c-1.28.16-6-.69-6.43006-4.11a5.36,5.36,0,0,1,5.01954-5.68006q.14007-.00859.28051-.00994a34.41142,34.41142,0,0,0,15.74-4.62C156.34125,215.6273,158.40118,213.9973,159.18121,213.42729Z"/><path id="Path_418" data-name="Path 418" class="cls-24" d="M153.15118,229.0673c-4.81005,4.86-9.64,10.47-14.44995,15.33a8.639,8.639,0,0,1-3.91,1.82c-1.28.16-6-.69-6.43-4.11a5.36,5.36,0,0,1,5.01953-5.68q.14007-.00861.28051-.01a34.2497,34.2497,0,0,0,15.74-4.62C150.30121,231.26732,152.37128,229.63731,153.15118,229.0673Z"/><path id="Path_419" data-name="Path 419" class="cls-24" d="M158.75128,194.92729c4.8,4.86,9.63,10.47,14.43994,15.33a8.63968,8.63968,0,0,0,3.91,1.82c1.28.16,6-.69,6.43-4.11a5.36,5.36,0,0,0-5.01953-5.68006q-.14007-.00859-.28052-.00994a34.24973,34.24973,0,0,1-15.74-4.62C161.59125,197.1273,159.53119,195.4973,158.75128,194.92729Z"/><path id="Path_420" data-name="Path 420" class="cls-24" d="M162.58124,211.83726c4.81006,4.86,9.64,10.47,14.45,15.32a8.59029,8.59029,0,0,0,3.91,1.83c1.28.16,6-.7,6.43006-4.11a5.36,5.36,0,0,0-5.01953-5.68q-.14008-.00861-.28052-.01a34.36929,34.36929,0,0,1-15.74-4.62C165.43121,214.02726,163.36127,212.40727,162.58124,211.83726Z"/><path id="Path_421" data-name="Path 421" class="cls-24" d="M168.62128,227.47728c4.81006,4.86,9.64,10.47,14.45,15.32a8.59142,8.59142,0,0,0,3.91,1.83c1.28.16,6-.7,6.42005-4.11a5.35,5.35,0,0,0-4.999-5.67933q-.15033-.0096-.301-.01068a34.33973,34.33973,0,0,1-15.73-4.62C171.47125,229.66728,169.40118,228.04728,168.62128,227.47728Z"/><rect id="Rectangle_229" data-name="Rectangle 229" class="cls-24" x="167.44122" y="204.28727" width="6.29" height="8.6"/><rect id="Rectangle_230" data-name="Rectangle 230" class="cls-25" x="153.64881" y="204.38521" width="8.10339" height="6.0798" transform="translate(-58.81465 352.39342) rotate(-86.55951)"/><rect id="Rectangle_231" data-name="Rectangle 231" class="cls-26" x="167.20752" y="203.99013" width="5.07" height="9.4" transform="translate(-10.55004 9.04372) rotate(-2.96)"/><rect id="Rectangle_232" data-name="Rectangle 232" class="cls-26" x="145.98647" y="219.35617" width="15.4" height="1.34" transform="translate(-75.55558 359.59382) rotate(-86.4)"/><rect id="Rectangle_233" data-name="Rectangle 233" class="cls-26" x="167.91652" y="214.18873" width="8.88" height="13.91" transform="translate(-11.18964 9.19532) rotate(-2.96)"/><path id="Path_422" data-name="Path 422" class="cls-24" d="M154.18121,225.36729c-.29,6.83-.07995,14.23-.37,21.06a8.58923,8.58923,0,0,1-1.67005,4c-.84,1-4.89,3.5-7.52,1.28a5.36005,5.36005,0,0,1-.125-7.57916q.09978-.10319.20507-.20087a34.17035,34.17035,0,0,0,8.54-14C153.55121,228.92729,153.99127,226.30729,154.18121,225.36729Z"/><path id="Path_423" data-name="Path 423" class="cls-24" d="M167.78119,227.17729c.56006,6.81.65,14.22,1.21,21a8.63748,8.63748,0,0,0,1.82,3.91c.88.95,5,3.31,7.56994,1a5.35,5.35,0,0,0-.18249-7.56384q-.106-.10107-.21753-.19617a34.33786,34.33786,0,0,1-9.09-13.66C168.55121,230.6873,168.01129,228.11729,167.78119,227.17729Z"/><path id="Path_424" data-name="Path 424" class="cls-27" d="M161.2912,195.97728l-6,94.33c-.09,1.44,1.93,2.63,4.5,2.63h0c3.63,0,6.6-1.69,6.49-3.72l-5-93.24"/></g><g id="news_letter_girl-4" data-name="news letter girl"><path id="Path_416-2" data-name="Path 416" class="cls-28" d="M111.31283,196.80417c-4.8,4.86-9.63,10.47-14.43994,15.33a8.53143,8.53143,0,0,1-3.91,1.82c-1.28.17-6-.69-6.43005-4.11a5.36,5.36,0,0,1,5.01953-5.68q.14007-.00861.28052-.01a34.15841,34.15841,0,0,0,15.74-4.62C108.47286,199.00412,110.5328,197.37412,111.31283,196.80417Z"/><path id="Path_417-2" data-name="Path 417" class="cls-28" d="M107.2828,213.71414c-4.8,4.86-9.63,10.47-14.43994,15.33a8.63908,8.63908,0,0,1-3.91,1.82c-1.28.16-6-.69-6.43005-4.11a5.36,5.36,0,0,1,5.01953-5.68q.14007-.00861.28052-.01a34.41146,34.41146,0,0,0,15.74-4.62C104.44283,215.91416,106.50277,214.28415,107.2828,213.71414Z"/><path id="Path_418-2" data-name="Path 418" class="cls-28" d="M101.25277,229.35416c-4.81006,4.86-9.64,10.47-14.44995,15.33a8.639,8.639,0,0,1-3.91,1.82c-1.28.16-6-.69-6.43005-4.11a5.36,5.36,0,0,1,5.01953-5.68006q.14007-.0086.28052-.00995a34.24956,34.24956,0,0,0,15.74-4.62C98.40279,231.55417,100.47286,229.92417,101.25277,229.35416Z"/><path id="Path_419-2" data-name="Path 419" class="cls-28" d="M106.85287,195.21414c4.8,4.86,9.63,10.47,14.43994,15.33a8.63967,8.63967,0,0,0,3.91,1.82c1.28.16,6-.69,6.43006-4.11a5.36,5.36,0,0,0-5.01954-5.68q-.14007-.00861-.28051-.01a34.2497,34.2497,0,0,1-15.74-4.62C109.69283,197.41416,107.63277,195.78415,106.85287,195.21414Z"/><path id="Path_420-2" data-name="Path 420" class="cls-28" d="M110.68282,212.12412c4.81006,4.86,9.64,10.47,14.44995,15.32a8.59012,8.59012,0,0,0,3.91,1.83c1.28.16,6-.7,6.43-4.11a5.36,5.36,0,0,0-5.01953-5.68006q-.14007-.00861-.28052-.01a34.36931,34.36931,0,0,1-15.74-4.62C113.5328,214.31412,111.46285,212.69412,110.68282,212.12412Z"/><path id="Path_421-2" data-name="Path 421" class="cls-28" d="M116.72286,227.76413c4.81006,4.86,9.64,10.47,14.45,15.32a8.59155,8.59155,0,0,0,3.91,1.83c1.28.16,6-.7,6.42-4.11a5.35,5.35,0,0,0-4.999-5.67932q-.15033-.00962-.301-.01068a34.33978,34.33978,0,0,1-15.73-4.62C119.57284,229.95413,117.50277,228.33414,116.72286,227.76413Z"/><rect id="Rectangle_229-2" data-name="Rectangle 229" class="cls-28" x="115.54281" y="204.57413" width="6.29" height="8.6"/><rect id="Rectangle_230-2" data-name="Rectangle 230" class="cls-29" x="100.7504" y="203.67207" width="8.10339" height="6.0798" transform="translate(-107.82668 298.92) rotate(-86.55951)"/><rect id="Rectangle_231-2" data-name="Rectangle 231" class="cls-30" x="115.30911" y="204.27698" width="5.07" height="9.4" transform="translate(-10.63409 6.36414) rotate(-2.96)"/><rect id="Rectangle_232-2" data-name="Rectangle 232" class="cls-30" x="94.08806" y="219.64303" width="15.4" height="1.34" transform="translate(-124.48156 308.06666) rotate(-86.4)"/><rect id="Rectangle_233-2" data-name="Rectangle 233" class="cls-30" x="116.0181" y="214.47559" width="8.88" height="13.91" transform="translate(-11.27369 6.51573) rotate(-2.96)"/><path id="Path_422-2" data-name="Path 422" class="cls-28" d="M102.2828,225.65415c-.29,6.83-.08,14.23-.37,21.06a8.58907,8.58907,0,0,1-1.67,4c-.84,1-4.89,3.5-7.52,1.28a5.36006,5.36006,0,0,1-.125-7.57916q.0998-.10318.20508-.20087a34.17029,34.17029,0,0,0,8.54-14C101.65279,229.21414,102.09286,226.59415,102.2828,225.65415Z"/><path id="Path_423-2" data-name="Path 423" class="cls-28" d="M115.88277,227.46414c.56006,6.81.65,14.22,1.21,21a8.63751,8.63751,0,0,0,1.81995,3.91c.88.95,5,3.31,7.57,1a5.35,5.35,0,0,0-.1825-7.56385q-.106-.10107-.21753-.19616a34.338,34.338,0,0,1-9.09-13.66C116.65279,230.97415,116.11288,228.40415,115.88277,227.46414Z"/><path id="Path_424-2" data-name="Path 424" class="cls-31" d="M109.39278,196.26413l-6,94.33c-.09,1.44,1.93006,2.63,4.5,2.63h0c3.63,0,6.6-1.69,6.49-3.72l-5-93.24"/></g></svg>